<svg width="100" height="57" xmlns="http://www.w3.org/2000/svg">

    <g>
        <title>background</title>
        <rect fill="none" id="canvas_background" height="59" width="102" y="-1" x="-1"/>
    </g>
    <g>
        <title>Layer 1</title>
        <g id="svg_1">
            <path id="svg_2" d="m19.82,16.28c4.75,0 8.62,3.87 8.62,8.62c0,4.75 -3.87,8.62 -8.62,8.62s-8.62,-3.87 -8.62,-8.62c0,-4.75 3.87,-8.62 8.62,-8.62m0,21.07c6.87,0 12.46,-5.59 12.46,-12.46c0,-6.87 -5.59,-12.46 -12.46,-12.46s-12.46,5.59 -12.46,12.46c0,6.87 5.59,12.46 12.46,12.46"/>
            <path id="svg_3" d="m80.05,16.28c4.75,0 8.62,3.87 8.62,8.62c0,4.75 -3.87,8.62 -8.62,8.62c-4.75,0 -8.62,-3.87 -8.62,-8.62c0.01,-4.75 3.87,-8.62 8.62,-8.62m0,21.07c6.87,0 12.46,-5.59 12.46,-12.46c0,-6.87 -5.59,-12.46 -12.46,-12.46c-6.87,0 -12.46,5.59 -12.46,12.46c0.01,6.87 5.59,12.46 12.46,12.46"/>
            <path id="svg_4" d="m49.94,3.69c6.65,0 12.06,5.41 12.06,12.06s-5.41,12.06 -12.06,12.06c-6.65,0 -12.06,-5.41 -12.06,-12.06s5.41,-12.06 12.06,-12.06m0,27.96c8.77,0 15.9,-7.13 15.9,-15.9s-7.13,-15.9 -15.9,-15.9s-15.9,7.13 -15.9,15.9s7.13,15.9 15.9,15.9"/>
            <path id="svg_5" d="m71.84,54.31l0,-2.19c0,-1.92 -0.34,-3.78 -0.96,-5.53l5.8,0c0.13,0.02 0.26,0.03 0.4,0.02c0.2,-0.01 0.41,-0.02 0.62,-0.02l7.27,0c4.97,0 9.2,3.24 10.7,7.71l-23.83,0l0,0.01zm-3.84,0l-36.13,0l0,-2.19c0,-6.97 5.67,-12.64 12.64,-12.64l10.84,0c6.97,0 12.64,5.67 12.64,12.64l0,2.19l0.01,0zm-39.96,-2.19l0,2.19l-23.83,0c1.5,-4.48 5.72,-7.71 10.7,-7.71l7.27,0c0.32,0 0.64,0.01 0.95,0.04c0.2,0.02 0.39,-0.01 0.58,-0.04l5.29,0c-0.63,1.75 -0.96,3.61 -0.96,5.52m56.93,-9.36l-2.35,0l-4.91,0l-8.8,0c-1.19,-1.72 -2.72,-3.23 -4.54,-4.42c-2.69,-1.76 -5.8,-2.69 -9.01,-2.69l-10.84,0c-5.09,0 -9.82,2.32 -12.98,6.36c-0.19,0.25 -0.37,0.5 -0.54,0.76l-11.69,0l-4.4,0l0,0c-4.03,0 -7.83,1.57 -10.69,4.44c-2.09,2.08 -3.48,4.67 -4.09,7.48c-0.11,0.71 -0.14,2.26 1.33,3.03c0.51,0.27 1.2,0.44 2.15,0.45c0.01,0 0.01,0 0.02,0l24.42,0l3.84,0l36.11,0l3.84,0l24.42,0l0.15,0c0.01,0 0.01,0 0.02,0c0.97,0 1.67,-0.19 2.18,-0.47c0.91,-0.49 1.23,-1.29 1.31,-1.99c-1.07,-7.32 -7.36,-12.95 -14.95,-12.95"/>
        </g>
    </g>
</svg>
