<svg width="58" height="60" xmlns="http://www.w3.org/2000/svg">

    <g>
        <title>background</title>
        <rect fill="none" id="canvas_background" height="62" width="60" y="-1" x="-1"/>
    </g>
    <g>
        <title>Layer 1</title>
        <path id="svg_1" d="m53.9,25.97l-49.79,0l0,-12.19c0,-1.93 1.57,-3.49 3.49,-3.49l6.17,0l0,3.82c0,1.03 0.83,1.86 1.86,1.86c1.03,0 1.86,-0.83 1.86,-1.86l0,-3.82l23.04,0l0,3.82c0,1.03 0.83,1.86 1.86,1.86c1.03,0 1.86,-0.83 1.86,-1.86l0,-3.82l6.17,0c1.93,0 3.49,1.57 3.49,3.49l0,12.19l-0.01,0zm0,26.6c0,1.93 -1.57,3.49 -3.49,3.49l-42.81,0c-1.93,0 -3.49,-1.57 -3.49,-3.49l0,-22.89l49.79,0l0,22.89zm-3.5,-46l-6.17,0l0,-4.49c0,-1.03 -0.83,-1.86 -1.86,-1.86c-1.02,0 -1.86,0.83 -1.86,1.86l0,4.49l-23.03,0l0,-4.49c0,-1.03 -0.83,-1.86 -1.86,-1.86c-1.03,0 -1.86,0.83 -1.86,1.86l0,4.49l-6.16,0c-3.97,0 -7.21,3.23 -7.21,7.21l0,38.79c0,3.98 3.23,7.21 7.21,7.21l42.8,0c3.97,0 7.21,-3.23 7.21,-7.21l0,-38.79c0,-3.97 -3.23,-7.21 -7.21,-7.21"/>
    </g>
</svg>
