<svg width="64" height="64" xmlns="http://www.w3.org/2000/svg">

    <g>
        <title>background</title>
        <rect fill="none" id="canvas_background" height="66" width="66" y="-1" x="-1"/>
    </g>
    <g>
        <title>Layer 1</title>
        <g id="svg_1">
            <path id="svg_2" d="m7.5,63.84c-4.05,0 -7.34,-3.29 -7.34,-7.34l0.01,-43.56c0,-4.05 3.29,-7.34 7.34,-7.34l24.5,0c1.05,0 1.9,0.85 1.9,1.9s-0.85,1.9 -1.9,1.9l-24.51,0c-1.95,0 -3.54,1.59 -3.54,3.54l-0.01,43.56c0,1.95 1.59,3.54 3.54,3.54l43.56,-0.01c1.95,0 3.54,-1.59 3.54,-3.54l0,-24.5c0,-1.05 0.85,-1.9 1.9,-1.9s1.9,0.85 1.9,1.9l0,24.5c0,4.05 -3.29,7.34 -7.34,7.34l-43.55,0.01zm8.17,-13.61c-0.5,0 -0.98,-0.2 -1.34,-0.56c-0.45,-0.45 -0.64,-1.09 -0.52,-1.72l2.56,-12.8c0.18,-0.9 0.62,-1.71 1.27,-2.36l32.08,-32.08c0.41,-0.41 0.98,-0.61 1.56,-0.54c6.63,0.76 11.8,5.93 12.56,12.56c0.07,0.58 -0.13,1.15 -0.54,1.56l-32.08,32.08c-0.64,0.64 -1.46,1.08 -2.36,1.26l-12.81,2.56c-0.13,0.03 -0.26,0.04 -0.38,0.04zm36.04,-46.15l-31.4,31.4c-0.12,0.12 -0.19,0.26 -0.23,0.42l-2,10.01l10.01,-2c0.16,-0.03 0.31,-0.11 0.42,-0.23l31.4,-31.4c-0.82,-4.15 -4.04,-7.36 -8.2,-8.2z"/>
        </g>
    </g>
</svg>
