<svg width="66" height="44" xmlns="http://www.w3.org/2000/svg">

    <g>
        <title>background</title>
        <rect fill="none" id="canvas_background" height="46" width="68" y="-1" x="-1"/>
    </g>
    <g>
        <title>Layer 1</title>
        <path id="svg_1" d="m3.65,9.78l28.29,18.8c0.64,0.42 1.49,0.42 2.12,0l28.29,-18.8l0,28.62c0,0.99 -0.79,1.73 -1.84,1.73l-55.03,0c-1.05,0 -1.83,-0.74 -1.83,-1.73l0,-28.62zm1.83,-5.91l55.04,0c1.04,0 1.82,0.73 1.84,1.7l-29.36,19.48l-29.35,-19.48c0.01,-0.97 0.79,-1.7 1.83,-1.7m0,-3.45c-3.02,0 -5.5,2.34 -5.5,5.18l0,32.8c0,2.84 2.49,5.18 5.5,5.18l55.04,0c3.02,0 5.5,-2.34 5.5,-5.18l0,-32.8c0,-2.84 -2.49,-5.18 -5.5,-5.18l-55.04,0z"/>
    </g>
</svg>
