<svg class="pm-icon" width="58" height="67" xmlns="http://www.w3.org/2000/svg">

    <g>
        <title>background</title>
        <rect fill="none" id="canvas_background" height="69" width="60" y="-1" x="-1"/>
    </g>
    <g>
        <title>Layer 1</title>
        <path id="svg_1" d="m57.910824,53.26l-8.31,-11.9c-0.39,-0.56 -0.6,-1.21 -0.6,-1.88l0,-15.37c-0.11,-1.71 -0.71,-7.71 -5.55,-12.06c-1.73,-1.57 -3.54,-2.49 -4.96,-3.04c-0.14,-4.99 -4.21,-9.01 -9.23,-9.01c-5.03,0 -9.1,4.02 -9.24,9.01c-1.48,0.61 -3.5,1.68 -5.4,3.56c-4.4,4.33 -4.99,9.82 -5.11,11.55l0,15.37c0,0.67 -0.21,1.32 -0.6,1.88l-8.31,11.9c-1.57,2.25 0.12,5.27 2.95,5.27l15.61,0c0.81,4.86 5,8.57 10.09,8.57c5.09,0 9.28,-3.71 10.09,-8.57l15.6,0c2.85,-0.01 4.54,-3.02 2.97,-5.28m-28.65,-48.71c1.9,0 3.52,1.13 4.27,2.75c-1.68,-0.35 -4.79,-0.77 -8.54,0c0.74,-1.62 2.37,-2.75 4.27,-2.75m0,58c-2.56,0 -4.7,-1.7 -5.43,-4.02l10.86,0c-0.73,2.32 -2.88,4.02 -5.43,4.02m15.11,-8.59l-30.26,0l-8.47,0c3.8,-5.32 6.54,-9.25 7.13,-10.17c0.23,-0.35 0.51,-0.83 0.75,-1.45c0.06,-0.15 0.24,-0.61 0.38,-1.24c0.12,-0.53 0.24,-1.3 0.21,-2.23l0,-13.82c0,-7.44 6.03,-13.46 13.47,-13.46l3.32,0c7.44,0 13.47,6.03 13.47,13.46l0,13.81c-0.03,0.94 0.09,1.7 0.21,2.23c0.14,0.64 0.32,1.09 0.38,1.24c0.25,0.63 0.53,1.1 0.75,1.45c0.59,0.92 3.33,4.85 7.13,10.17l-8.47,0l0,0.01z"/>
    </g>
</svg>
