<svg class="pm-icon" width="62" height="58" xmlns="http://www.w3.org/2000/svg">

    <g>
        <title>background</title>
        <rect fill="none" id="canvas_background" height="60" width="64" y="-1" x="-1"/>
    </g>
    <g>
        <title>Layer 1</title>
        <path id="svg_1" d="m6.75,8.325849c0.39,-0.29 2.08,-1.48 3.67,-2.61c0.76,-0.54 1.34,-0.95 1.78,-1.27l11.61,10.76l-4.85,6.3c-0.59,0.77 -0.5,1.83 0.22,2.5l18.84,17.46c0.71,0.65 1.8,0.74 2.61,0.2l6.85,-4.53l10.51,9.73c-0.34,0.46 -0.78,1.07 -1.37,1.88c-1.08,1.47 -2.19,3 -2.52,3.44c-9.1,8.18 -26.53,-6.18 -33.63,-12.75c-10.57,-9.79 -16.39,-18.65 -16.39,-24.94c0.01,-2.45 0.88,-4.47 2.67,-6.17m40.7,50.19c3.74,0 6.98,-1.22 9.64,-3.69c0.19,-0.18 0.19,-0.18 2.9,-3.9c1.08,-1.48 2.13,-2.92 2.14,-2.96c0.78,-0.76 0.76,-1.97 -0.04,-2.7l-12.95,-12c-0.71,-0.65 -1.8,-0.74 -2.61,-0.2l-6.84,4.53l-16.37,-15.17l4.85,-6.3c0.59,-0.77 0.5,-1.83 -0.22,-2.5l-14.13,-13.08c-0.74,-0.68 -1.91,-0.73 -2.72,-0.12c-0.18,0.14 -1.62,1.15 -3.13,2.23c-3.85,2.73 -3.86,2.74 -4,2.87c0,0 -0.01,0.01 -0.01,0.01c-2.63,2.43 -3.96,5.45 -3.96,8.98c0,9.39 9.58,20.24 17.61,27.68c11.66,10.79 21.87,16.32 29.84,16.32"/>
    </g>
</svg>
