<svg class="pm-icon" width="61" height="66" xmlns="http://www.w3.org/2000/svg">

    <g>
        <title>background</title>
        <rect fill="none" id="canvas_background" height="68" width="63" y="-1" x="-1"/>
    </g>
    <g>
        <title>Layer 1</title>
        <path id="svg_1" d="m57.810926,57.593136c-0.06,2.82 -2.39,5.07 -5.21,5.03l-43.8,-0.76c-2.81,-0.07 -5.05,-2.4 -5.01,-5.21l0.02,-1.04c0.19,-8.5 6.72,-15.35 15.19,-15.93l2.25,0.04l0.13,0.14c2.53,2.7 5.95,4.26 9.64,4.4c3.7,-0.02 7.19,-1.48 9.82,-4.11l0.14,-0.14l2.15,0.04c8.53,0.87 14.84,7.96 14.7,16.5l-0.02,1.04zm-41.35,-39.34c0.16,-8.26 7,-14.87 15.26,-14.74c8.26,0.16 14.87,7 14.74,15.26c-0.16,8.95 -6.69,22.11 -15.39,21.96c-8.7,-0.15 -14.76,-13.53 -14.61,-22.48m28.31,18.29l-0.68,-0.11l0.38,-0.58c3.34,-5.07 5.25,-10.95 5.52,-17.02c0.18,-10.2 -7.98,-18.65 -18.19,-18.83c0,0 0,0 0,0c-4.95,-0.09 -9.63,1.76 -13.19,5.19c-3.56,3.44 -5.57,8.05 -5.66,13c0.06,6.06 1.76,12.01 4.92,17.2l0.36,0.59l-0.69,0.09c-9.93,1.28 -17.3,9.48 -17.52,19.48l-0.02,1.04c-0.07,4.89 3.84,8.95 8.73,9.04l43.8,0.76c4.89,0.08 8.95,-3.84 9.04,-8.73l0.02,-1.04c0.13,-10.01 -6.94,-18.46 -16.82,-20.08"/>
    </g>
</svg>
