<svg class="pm-icon" width="66" height="54" xmlns="http://www.w3.org/2000/svg">

    <g>
        <title>background</title>
        <rect fill="none" id="canvas_background" height="56" width="68" y="-1" x="-1"/>
    </g>
    <g>
        <title>Layer 1</title>
        <g id="svg_1">
            <path id="svg_2" d="m49.02,11.51l-32.11,0c-1.09,0 -1.97,0.83 -1.97,1.86c0,1.03 0.89,1.86 1.97,1.86l32.19,0c1.09,0 1.97,-0.83 1.97,-1.86c0,-1.03 -0.92,-1.86 -2.05,-1.86"/>
            <path id="svg_3" d="m49.02,19.79l-32.11,0c-1.09,0 -1.97,0.83 -1.97,1.86c0,1.03 0.89,1.86 1.97,1.86l32.19,0c1.09,0 1.97,-0.83 1.97,-1.86c0,-1.02 -0.92,-1.86 -2.05,-1.86"/>
            <path id="svg_4" d="m49.02,28.08l-32.11,0c-1.09,0 -1.97,0.83 -1.97,1.86c0,1.03 0.89,1.86 1.97,1.86l32.19,0c1.09,0 1.97,-0.83 1.97,-1.86c0,-1.03 -0.92,-1.86 -2.05,-1.86"/>
            <path id="svg_5" d="m61.77,35.8l-0.09,0c-0.2,2.75 -2.64,4.93 -5.61,4.93l-26.11,0c-0.45,0 -0.82,0.11 -1.13,0.35l-10.94,7.5l0,-5.99c0,-1.02 -0.89,-1.86 -1.97,-1.86l-5.92,0c-3.1,0 -5.62,-2.37 -5.62,-5.29l0,-26.51c0,-2.92 2.52,-5.29 5.62,-5.29l46.16,0c3.1,0 5.62,2.37 5.62,5.29l0,26.87l-0.01,0zm-5.69,-35.87l-46.16,0c-5.28,0 -9.57,4.04 -9.57,9l0,26.51c0,4.96 4.29,9 9.57,9l3.95,0l0,7.79c0,0.68 0.4,1.3 1.11,1.69c0.48,0.22 1.48,0.21 2,-0.19l13.63,-9.3l25.48,0c5.27,0 9.57,-4.04 9.57,-9l0,-26.5c-0.02,-4.96 -4.31,-9 -9.58,-9"/>
        </g>
    </g>
</svg>
