<svg class="pm-icon" width="70" height="54" xmlns="http://www.w3.org/2000/svg">

    <g>
        <title>background</title>
        <rect fill="none" id="canvas_background" height="56" width="72" y="-1" x="-1"/>
    </g>
    <g>
        <title>Layer 1</title>
        <g id="svg_1">
            <g id="svg_2">
                <path id="svg_3" d="m11.51,54.19l-5.31,0c-4.51,0 -6.15,-3.68 -6.15,-6.15l0,-15.53c0,-4.51 3.68,-6.15 6.15,-6.15l5.31,0c4.51,0 6.15,3.68 6.15,6.15l0,15.53c0.01,4.51 -3.67,6.15 -6.15,6.15zm-5.29,-24.24c-0.78,0.02 -2.57,0.3 -2.57,2.56l0,15.53c0.02,0.76 0.3,2.56 2.56,2.56l5.31,0c0.76,-0.01 2.56,-0.29 2.56,-2.56l0,-15.53c-0.02,-0.76 -0.3,-2.56 -2.56,-2.56l-5.3,0z"/>
            </g>
            <g id="svg_4">
                <path id="svg_5" d="m37.66,54.19l-5.31,0c-4.51,0 -6.15,-3.68 -6.15,-6.15l0,-42.08c0,-4.51 3.68,-6.15 6.15,-6.15l5.31,0c4.51,0 6.15,3.68 6.15,6.15l0,42.07c0,4.52 -3.68,6.16 -6.15,6.16zm-5.3,-50.79c-0.78,0.02 -2.57,0.3 -2.57,2.56l0,42.07c0.02,0.76 0.3,2.56 2.56,2.56l5.31,0c0.76,-0.01 2.56,-0.29 2.56,-2.56l0,-42.07c-0.02,-0.76 -0.3,-2.56 -2.56,-2.56l-5.3,0z"/>
            </g>
            <g id="svg_6">
                <path id="svg_7" d="m63.8,54.19l-5.31,0c-4.51,0 -6.15,-3.68 -6.15,-6.15l0,-32.2c0,-4.51 3.68,-6.15 6.15,-6.15l5.31,0c4.51,0 6.15,3.68 6.15,6.15l0,32.19c0,4.52 -3.68,6.16 -6.15,6.16zm-5.3,-40.91c-0.78,0.02 -2.57,0.3 -2.57,2.56l0,32.19c0.02,0.76 0.3,2.56 2.56,2.56l5.31,0c0.76,-0.01 2.56,-0.29 2.56,-2.56l0,-32.19c-0.02,-0.76 -0.3,-2.56 -2.56,-2.56l-5.3,0z"/>
            </g>
        </g>
    </g>
</svg>
