<svg class="pm-icon" width="68" height="68" xmlns="http://www.w3.org/2000/svg">

    <g>
        <title>background</title>
        <rect fill="none" id="canvas_background" height="70" width="70" y="-1" x="-1"/>
    </g>
    <g>
        <title>Layer 1</title>
        <g stroke="null" id="svg_1">
            <path stroke="null" id="svg_2" d="m31.12,62.63l-25.71,-25.7l31.88,-31.88l25.12,0.67l0.58,25.12l-31.87,31.79zm36.31,-57.84l0,-0.17c-0.17,-2.25 -2,-3.92 -4.09,-3.92l-27.04,-0.67c-0.67,0 -1.33,0.25 -1.84,0.75l-33.22,33.22c-1.67,1.67 -1.67,4.26 0,5.84l26.88,26.87c0.83,0.84 1.92,1.25 2.92,1.25c1.08,0 2.09,-0.42 2.92,-1.25l33.3,-33.13c0.5,-0.5 0.75,-1.17 0.75,-1.84l-0.58,-26.95z"/>
            <path stroke="null" id="svg_3" d="m45.98,26.66c-2.5,0 -4.59,-2.09 -4.59,-4.59s2.09,-4.59 4.59,-4.59c2.5,0 4.59,2.09 4.59,4.59s-2.09,4.59 -4.59,4.59m0,-14.19c-5.26,0 -9.6,4.34 -9.6,9.6c0,5.26 4.34,9.6 9.6,9.6c5.26,0 9.6,-4.34 9.6,-9.6c0,-5.26 -4.34,-9.6 -9.6,-9.6"/>
        </g>
    </g>
</svg>
