<svg class="pm-icon" width="48" height="61" xmlns="http://www.w3.org/2000/svg">

    <g>
        <title>background</title>
        <rect fill="none" id="canvas_background" height="63" width="50" y="-1" x="-1"/>
    </g>
    <g>
        <title>Layer 1</title>
        <path id="svg_1" d="m5.33,4.84l33.11,0l-11.16,9.48c-1.08,0.91 -1.08,2.82 0,3.73l11.18,9.51l-33.13,0l0,-22.72zm-2.43,-4.86c-1.36,0.02 -2.41,1.41 -2.44,2.44l0,55.18c0,1.35 1.09,2.44 2.44,2.44s2.44,-1.09 2.44,-2.44l0,-25.15l39.76,0c1,0.01 1.97,-0.66 2.31,-1.6c0.34,-0.94 0.03,-2.08 -0.74,-2.71l-14.05,-11.94l14.05,-11.94c0.75,-0.64 1.05,-1.76 0.71,-2.69c-0.34,-0.92 -1.3,-1.59 -2.28,-1.6l-42.2,0l0,0.01z"/>
    </g>
</svg>
